<?xml version="1.0" encoding="utf-8"?>
<!-- Generator: Adobe Illustrator 17.0.0, SVG Export Plug-In . SVG Version: 6.00 Build 0)  -->
<!DOCTYPE svg PUBLIC "-//W3C//DTD SVG 1.1//EN" "http://www.w3.org/Graphics/SVG/1.1/DTD/svg11.dtd">
<svg version="1.1"
	 id="svg3354" xmlns:rdf="http://www.w3.org/1999/02/22-rdf-syntax-ns#" xmlns:sodipodi="http://sodipodi.sourceforge.net/DTD/sodipodi-0.dtd" xmlns:inkscape="http://www.inkscape.org/namespaces/inkscape" xmlns:svg="http://www.w3.org/2000/svg" xmlns:cc="http://creativecommons.org/ns#" xmlns:dc="http://purl.org/dc/elements/1.1/" inkscape:export-ydpi="90" sodipodi:docname="webon studio interaktywne_logo_lemon.svg" inkscape:export-filename="C:\Users\admin.Avatec-Komputer\Desktop\logotyp_webon_studio.png" inkscape:export-xdpi="90" inkscape:version="0.91 r13725"
	 xmlns="http://www.w3.org/2000/svg" xmlns:xlink="http://www.w3.org/1999/xlink" x="0px" y="0px" width="622px" height="129.5px"
	 viewBox="0 0 622 129.5" enable-background="new 0 0 622 129.5" xml:space="preserve">
<sodipodi:namedview  inkscape:cy="202.79447" inkscape:zoom="2" inkscape:cx="282.21803" guidetolerance="10" showgrid="false" gridtolerance="10" objecttolerance="10" borderopacity="1" bordercolor="#666666" id="namedview3356" pagecolor="#ffffff" inkscape:current-layer="svg3354" inkscape:window-maximized="1" inkscape:window-y="-8" inkscape:window-x="-8" inkscape:window-height="837" inkscape:window-width="1600" inkscape:pageshadow="2" inkscape:pageopacity="0">
	</sodipodi:namedview>
<g id="flowRoot4461">
</g>
<path id="path3420-1-1-3" inkscape:connector-curvature="0" fill="#1A1A1A" d="M281.817,6.65c-0.009,0.001-0.02,0.001-0.029,0.003
	c0.001,0.007,0.001,0.016,0.002,0.022C281.799,6.668,281.808,6.659,281.817,6.65L281.817,6.65z M243.393,6.989
	c-1.012,0-1.995,0.023-2.881,0.073c-12.751,0.72-24.709,7.31-31.968,17.62c-11.402,16.192-8.836,37.269,6.192,50.846
	c6.452,5.829,15.195,9.737,23.85,10.662c0.842,0.09,2.908,0.174,4.591,0.188c5.436,0.041,9.751-0.604,14.821-2.216l2.169-0.69
	l0.135-16.877c0.074-9.282,0.216-18.653,0.315-20.825c0.171-3.768,0.212-4.042,0.896-6.002c0.394-1.13,1.042-2.72,1.44-3.534
	l0.725-1.479l-0.957-1.173c-1.292-1.585-3.704-3.814-5.262-4.863c-1.664-1.12-5.426-2.812-6.512-2.927
	c-0.806-0.086-0.879-0.05-1.386,0.672c-2.526,3.603-5.017,10.329-5.454,14.729c-0.113,1.136-0.268,8.268-0.346,15.848l-0.141,13.782
	l-1.446-0.123c-1.909-0.162-4.999-0.745-6.649-1.254c-7.476-2.308-13.796-8.26-16.206-15.263
	c-2.119-6.157-1.485-13.433,1.636-18.779c2.614-4.479,7.567-8.797,12.319-10.741c3.601-1.473,8.345-2.138,12.921-1.812
	c11.1,0.79,20.379,8.686,22.679,19.301c0.378,1.744,0.429,5.941,0.1,8.179c-0.556,3.776-2.732,8.441-5.391,11.559l-1.116,1.309
	l-0.004,3.965c-0.001,2.181,0.058,6.441,0.132,9.468l0.134,5.504l0.465-0.167c2.045-0.734,6.86-4.066,9.848-6.815
	c3.862-3.554,6.529-7.001,8.799-11.376c2.776-5.35,3.862-9.638,4.029-15.91c0.108-4.037-0.075-6.52-0.693-9.415
	c-3.281-15.379-16.6-27.615-33.634-30.9c-1.806-0.348-5.113-0.562-8.15-0.562H243.393z M274.513,13.273
	c0.027,0.148,0.057,0.295,0.095,0.44c0.051,0.194,0.021-0.049-0.023-0.366C274.56,13.322,274.537,13.297,274.513,13.273
	L274.513,13.273z M275.243,16.222c-0.244,0.031-0.489,0.117-0.733,0.127C274.718,16.507,274.956,16.525,275.243,16.222z
	 M279.095,21.192l0.065,0.077c0-0.01-0.001-0.019-0.001-0.028C279.141,21.227,279.117,21.209,279.095,21.192L279.095,21.192z
	 M286.526,21.919c-0.101,0.172-0.223,0.312-0.364,0.427c0.035,0.045,0.071,0.092,0.141,0.161c0.048,0.049-0.148-0.171-0.08-0.187
	c0.098-0.022,0.181,0.088,0.262,0.146c0.067,0.047,0.131,0.097,0.196,0.146c-0.036-0.161-0.072-0.321-0.108-0.481
	C286.556,22.055,286.543,21.994,286.526,21.919L286.526,21.919z"/>
<g id="flowRoot4453-5-1" transform="matrix(1.1471426,0,0,0.9935264,-51.97356,-81.586935)">
	<path id="path3373" fill="#AAD400" d="M122.524,161.191h-13.413v-3.658c-2.7,2.439-6.169,3.658-10.408,3.658
		c-5.69,0-9.9-2.308-12.629-6.924c-2.845,4.616-7.302,6.924-13.369,6.924c-5.342,0-9.377-2.003-12.106-6.01
		c-2.323-3.455-3.484-7.998-3.484-13.63v-38.279h13.369v38.279c0,3.512,0.842,5.501,2.526,5.966
		c0.842,0.232,2.105,0.348,3.789,0.348c3.455,0,5.444-0.842,5.966-2.526c0.232-0.842,0.349-2.105,0.349-3.789v-38.279h13.369v38.279
		c0,3.512,0.842,5.501,2.526,5.966c0.871,0.232,2.134,0.348,3.789,0.348c3.513,0,5.502-0.842,5.966-2.526
		c0.232-0.842,0.348-2.105,0.348-3.789v-38.279h13.413L122.524,161.191L122.524,161.191z"/>
	<path id="path3375" fill="#AAD400" d="M167.03,142.683h-25.998c-0.058,2.178,0.465,3.644,1.568,4.399
		c0.813,0.522,2.395,0.784,4.747,0.784h15.982v13.326h-15.982c-6.416,0-11.308-1.669-14.676-5.008
		c-3.339-3.339-5.008-8.216-5.008-14.632v-18.552c0-6.416,1.669-11.308,5.008-14.676c3.368-3.368,8.26-5.052,14.676-5.052
		c6.416,0,11.294,1.684,14.632,5.052c3.368,3.368,5.052,8.259,5.052,14.676V142.683z M153.661,129.313v-6.314
		c0-3.513-0.842-5.501-2.526-5.966c-0.842-0.233-2.105-0.348-3.789-0.348c-3.455,0-5.444,0.842-5.966,2.526
		c-0.232,0.842-0.349,2.105-0.349,3.789v6.314H153.661z"/>
	<path id="path3377" fill="#AAD400" d="M211.624,141.551c0,5.632-1.161,10.176-3.484,13.63c-2.758,4.007-6.793,6.01-12.106,6.01
		c-4.21,0-7.679-1.22-10.408-3.658v3.658h-13.369V99.57h13.369v7.447c2.758-2.497,6.227-3.745,10.408-3.745
		c5.313,0,9.348,2.032,12.106,6.097c2.323,3.455,3.484,7.999,3.484,13.631V141.551z M198.255,141.551v-18.552
		c0-3.484-0.871-5.472-2.613-5.966c-0.842-0.233-2.076-0.348-3.701-0.348c-3.455,0-5.444,0.856-5.966,2.569
		c-0.232,0.871-0.348,2.12-0.348,3.745v18.552c0,3.512,0.871,5.501,2.613,5.966c0.842,0.232,2.076,0.348,3.702,0.348
		c3.455,0,5.443-0.857,5.966-2.569C198.139,144.425,198.255,143.176,198.255,141.551z"/>
</g>
<g id="flowRoot4469-3-9" transform="matrix(0.59145783,0,0,0.51406124,264.56473,-99.963175)">
	<path id="path3380" fill="#1A1A1A" d="M192.801,317.143c0,12.187-3.31,20.977-9.931,26.367c-5.977,4.922-15.177,7.383-27.598,7.383
		c-12.421,0-21.621-2.461-27.598-7.383c-6.621-5.39-9.931-14.179-9.931-26.367v-3.34h22.5v2.285c0,6.269,1.202,10.078,3.604,11.426
		c1.172,0.586,5.566,0.879,13.184,0.879c5.272,0,8.642-0.557,10.106-1.67c2.11-1.407,3.164-4.599,3.164-9.58
		c0-5.098-1.2-8.349-3.603-9.756c-1.699-0.995-5.303-1.494-10.81-1.494c-12.775,0-22.12-2.402-28.037-7.207
		c-6.738-5.332-10.108-14.18-10.108-26.544c0-12.188,3.31-20.976,9.931-26.367c5.977-4.922,15.177-7.383,27.598-7.383
		c12.421,0,21.621,2.461,27.598,7.383c6.621,5.39,9.931,14.179,9.931,26.367v3.34H170.3v-2.285c0-6.27-1.2-10.078-3.603-11.426
		c-1.172-0.586-5.566-0.879-13.184-0.879c-5.274,0-8.642,0.557-10.106,1.67c-2.11,1.407-3.165,4.6-3.165,9.58
		c0,5.039,1.172,8.291,3.517,9.756c1.64,0.996,5.127,1.494,10.458,1.494c12.833,0,22.295,2.344,28.389,7.032
		C189.402,295.815,192.801,304.722,192.801,317.143z"/>
	<path id="path3382" fill="#1A1A1A" d="M271.551,350.894h-22.5c-25.021,0-37.53-12.51-37.53-37.53v-45h-7.471v-22.5h7.471v-14.941
		h22.5v14.941h37.53v22.5h-37.53v45c0,6.035,0.996,10.049,2.989,12.041c1.991,1.992,6.005,2.988,12.042,2.988h22.5V350.894z"/>
	<path id="path3384" fill="#1A1A1A" d="M358.738,350.894h-22.5v-10.986c-5.918,7.324-13.681,10.986-23.29,10.986
		c-10.138,0-17.725-3.838-22.764-11.513c-4.336-6.621-6.504-15.293-6.504-26.016v-74.971h22.5v74.971
		c0,6.094,0.966,10.137,2.901,12.13c1.991,1.933,6.035,2.9,12.127,2.9c6.094,0,10.108-0.967,12.042-2.9
		c1.993-1.993,2.988-6.035,2.988-12.13v-74.971h22.5V350.894z"/>
	<path id="path3386" fill="#1A1A1A" d="M448.738,350.894h-22.5v-10.986c-5.919,7.324-13.683,10.986-23.292,10.986
		c-10.136,0-17.725-3.838-22.762-11.513c-4.336-6.621-6.505-15.293-6.505-26.016v-37.441c0-10.723,2.17-19.394,6.505-26.015
		c5.038-7.676,12.626-11.514,22.762-11.514c9.609,0,17.373,3.663,23.292,10.987v-18.458h22.5V350.894z M426.239,313.364v-37.441
		c0-6.093-0.997-10.107-2.989-12.041c-1.933-1.992-5.947-2.988-12.042-2.988c-6.093,0-10.136,0.996-12.129,2.988
		c-1.933,1.934-2.899,5.948-2.899,12.041v37.441c0,6.094,0.966,10.137,2.899,12.13c1.993,1.933,6.036,2.9,12.129,2.9
		c6.094,0,10.108-0.967,12.042-2.9C425.241,323.501,426.239,319.458,426.239,313.364z"/>
	<path id="path3388" fill="#1A1A1A" d="M486.179,350.894h-22.5v-112.5h22.5V350.894z"/>
	<path id="path3390" fill="#1A1A1A" d="M576.356,313.364c0,25.02-12.51,37.53-37.53,37.53c-25.019,0-37.53-12.51-37.53-37.53
		v-37.441c0-25.019,12.511-37.53,37.53-37.53c25.019,0,37.53,12.511,37.53,37.53V313.364z M553.855,313.364v-37.441
		c0-6.093-0.996-10.107-2.987-12.041c-1.934-1.992-5.947-2.988-12.042-2.988c-6.094,0-10.138,0.996-12.129,2.988
		c-1.934,1.934-2.901,5.948-2.901,12.041v37.441c0,6.094,0.967,10.137,2.901,12.13c1.991,1.933,6.035,2.9,12.129,2.9
		c6.094,0,10.108-0.967,12.042-2.9C552.859,323.501,553.855,319.458,553.855,313.364z"/>
</g>
<g id="flowRoot4477-0-6" transform="matrix(1.0324911,0,0,1.0773,213.44412,-80.964525)">
	<path id="path3393" fill="#4D4D4D" d="M125.435,157.066h-4.141v-3.809h4.141V157.066z M125.201,182.535h-3.672v-21.817h3.672
		V182.535z"/>
	<path id="path3395" fill="#4D4D4D" d="M150.592,182.535h-3.672v-12.422c0-1.003-0.059-1.94-0.176-2.813
		c-0.117-0.885-0.332-1.576-0.644-2.07c-0.325-0.547-0.794-0.95-1.406-1.211c-0.612-0.273-1.406-0.41-2.383-0.41
		c-1.003,0-2.052,0.247-3.145,0.742c-1.093,0.495-2.142,1.126-3.145,1.895v16.289h-3.672v-21.817h3.672v2.422
		c1.146-0.951,2.33-1.693,3.555-2.227c1.224-0.534,2.48-0.801,3.769-0.801c2.357,0,4.154,0.71,5.39,2.129
		c1.237,1.419,1.856,3.463,1.856,6.132V182.535L150.592,182.535z"/>
	<path id="path3397" fill="#4D4D4D" d="M168.99,182.34c-0.689,0.182-1.445,0.332-2.265,0.449c-0.808,0.117-1.53,0.176-2.168,0.176
		c-2.227,0-3.92-0.599-5.078-1.797c-1.159-1.198-1.738-3.119-1.738-5.762v-11.602h-2.481v-3.086h2.481v-6.269h3.672v6.269h7.578
		v3.086h-7.578v9.942c0,1.146,0.026,2.044,0.078,2.695c0.052,0.638,0.234,1.237,0.547,1.797c0.287,0.521,0.677,0.905,1.172,1.152
		c0.508,0.234,1.276,0.352,2.305,0.352c0.599,0,1.224-0.085,1.875-0.254c0.651-0.182,1.12-0.332,1.406-0.45h0.195V182.34
		L168.99,182.34z"/>
	<path id="path3399" fill="#4D4D4D" d="M191.705,172.008h-16.074c0,1.341,0.202,2.513,0.605,3.515
		c0.404,0.989,0.957,1.803,1.661,2.441c0.676,0.626,1.477,1.094,2.402,1.406c0.937,0.313,1.965,0.469,3.085,0.469
		c1.485,0,2.976-0.293,4.473-0.879c1.51-0.599,2.585-1.185,3.222-1.758h0.196v4.004c-1.237,0.521-2.5,0.957-3.789,1.309
		c-1.289,0.352-2.644,0.527-4.063,0.527c-3.62,0-6.445-0.976-8.476-2.929c-2.031-1.966-3.047-4.753-3.047-8.36
		c0-3.567,0.97-6.399,2.91-8.496c1.953-2.096,4.518-3.145,7.695-3.145c2.943,0,5.209,0.859,6.797,2.578
		c1.601,1.719,2.402,4.16,2.402,7.325V172.008z M188.131,169.195c-0.013-1.927-0.501-3.418-1.465-4.473
		c-0.951-1.055-2.402-1.582-4.356-1.582c-1.965,0-3.535,0.579-4.706,1.738c-1.159,1.159-1.817,2.598-1.973,4.316H188.131z"/>
	<path id="path3401" fill="#4D4D4D" d="M210.885,164.723h-0.195c-0.548-0.13-1.081-0.221-1.602-0.273
		c-0.508-0.065-1.113-0.097-1.816-0.097c-1.133,0-2.226,0.254-3.281,0.761c-1.055,0.495-2.07,1.139-3.047,1.934v15.488h-3.672
		v-21.817h3.672v3.223c1.458-1.172,2.741-1.998,3.848-2.48c1.12-0.495,2.26-0.742,3.418-0.742c0.638,0,1.1,0.02,1.387,0.059
		c0.287,0.026,0.716,0.084,1.289,0.176V164.723L210.885,164.723z"/>
	<path id="path3403" fill="#4D4D4D" d="M230.631,182.535h-3.652v-2.324c-0.326,0.221-0.769,0.534-1.329,0.937
		c-0.547,0.391-1.08,0.703-1.601,0.938c-0.612,0.3-1.315,0.547-2.109,0.742c-0.794,0.208-1.725,0.313-2.793,0.313
		c-1.966,0-3.633-0.651-5-1.953c-1.368-1.302-2.051-2.962-2.051-4.981c0-1.654,0.352-2.988,1.055-4.004
		c0.717-1.028,1.732-1.836,3.047-2.422c1.328-0.586,2.923-0.983,4.785-1.192c1.862-0.208,3.861-0.364,5.997-0.469v-0.567
		c0-0.833-0.15-1.523-0.449-2.07c-0.287-0.547-0.704-0.977-1.25-1.289c-0.521-0.3-1.145-0.501-1.875-0.606
		c-0.729-0.104-1.492-0.156-2.285-0.156c-0.964,0-2.038,0.13-3.223,0.391c-1.184,0.247-2.408,0.612-3.672,1.094h-0.195v-3.731
		c0.716-0.195,1.751-0.41,3.105-0.644c1.354-0.234,2.689-0.351,4.004-0.351c1.537,0,2.872,0.13,4.004,0.391
		c1.146,0.247,2.136,0.677,2.969,1.289c0.821,0.599,1.445,1.374,1.876,2.324c0.429,0.951,0.644,2.129,0.644,3.535V182.535z
		 M226.979,177.164v-6.074c-1.12,0.065-2.442,0.163-3.965,0.293c-1.511,0.131-2.709,0.319-3.594,0.567
		c-1.055,0.3-1.908,0.768-2.558,1.406c-0.651,0.625-0.977,1.491-0.977,2.598c0,1.25,0.378,2.194,1.133,2.832
		c0.756,0.625,1.908,0.938,3.457,0.938c1.289,0,2.468-0.247,3.536-0.742C225.078,178.473,226.067,177.867,226.979,177.164z"/>
	<path id="path3405" fill="#4D4D4D" d="M257.545,182.535h-4.844l-8.75-9.551l-2.383,2.266v7.285h-3.672v-30.391h3.672v19.492
		l10.606-10.918h4.629l-10.136,10.078L257.545,182.535z"/>
	<path id="path3407" fill="#4D4D4D" d="M272.74,182.34c-0.69,0.182-1.445,0.332-2.265,0.449c-0.808,0.117-1.53,0.176-2.168,0.176
		c-2.227,0-3.92-0.599-5.078-1.797c-1.16-1.198-1.738-3.119-1.738-5.762v-11.602h-2.481v-3.086h2.481v-6.269h3.672v6.269h7.578
		v3.086h-7.578v9.942c0,1.146,0.025,2.044,0.078,2.695c0.052,0.638,0.234,1.237,0.547,1.797c0.287,0.521,0.677,0.905,1.172,1.152
		c0.508,0.234,1.276,0.352,2.304,0.352c0.6,0,1.224-0.085,1.876-0.254c0.651-0.182,1.12-0.332,1.406-0.45h0.195V182.34
		L272.74,182.34z"/>
	<path id="path3409" fill="#4D4D4D" d="M295.905,160.719l-12.735,29.863h-3.926l4.063-9.102l-8.692-20.762h3.985l6.699,16.172
		l6.758-16.172H295.905z"/>
	<path id="path3411" fill="#4D4D4D" d="M328.151,160.719l-5.683,21.817h-3.399l-5.605-16.816l-5.566,16.816h-3.379l-5.742-21.817
		h3.829l4.004,16.895l5.449-16.895h3.028l5.586,16.895l3.789-16.895H328.151z"/>
	<path id="path3413" fill="#4D4D4D" d="M351.686,182.535h-3.672v-12.422c0-1.003-0.059-1.94-0.176-2.813
		c-0.117-0.885-0.332-1.576-0.645-2.07c-0.325-0.547-0.795-0.95-1.407-1.211c-0.612-0.273-1.406-0.41-2.383-0.41
		c-1.003,0-2.051,0.247-3.144,0.742c-1.094,0.495-2.142,1.126-3.145,1.895v16.289h-3.672v-21.817h3.672v2.422
		c1.145-0.951,2.33-1.693,3.554-2.227c1.224-0.534,2.481-0.801,3.77-0.801c2.356,0,4.153,0.71,5.39,2.129
		c1.237,1.419,1.856,3.463,1.856,6.132V182.535z"/>
	<path id="path3415" fill="#4D4D4D" d="M377.017,172.008h-16.073c0,1.341,0.201,2.513,0.605,3.515
		c0.404,0.989,0.957,1.803,1.66,2.441c0.677,0.626,1.478,1.094,2.402,1.406c0.937,0.313,1.966,0.469,3.086,0.469
		c1.484,0,2.975-0.293,4.472-0.879c1.51-0.599,2.585-1.185,3.223-1.758h0.195v4.004c-1.237,0.521-2.5,0.957-3.789,1.309
		c-1.289,0.352-2.643,0.527-4.062,0.527c-3.62,0-6.446-0.976-8.477-2.929c-2.032-1.966-3.047-4.753-3.047-8.36
		c0-3.567,0.969-6.399,2.909-8.496c1.953-2.096,4.518-3.145,7.695-3.145c2.943,0,5.209,0.859,6.798,2.578
		c1.601,1.719,2.401,4.16,2.401,7.325V172.008z M373.444,169.195c-0.013-1.927-0.501-3.418-1.465-4.473
		c-0.951-1.055-2.402-1.582-4.356-1.582c-1.966,0-3.536,0.579-4.707,1.738c-1.159,1.159-1.816,2.598-1.972,4.316H373.444z"/>
</g>
<path id="path3411-4" sodipodi:nodetypes="ccsssccssscssssssccccc" inkscape:connector-curvature="0" fill="#AAD400" d="
	M307.094,63.636l-0.581-18.876l-0.34-4.731c-0.364-5.047-2.179-7.735-4.987-10.739c-2.901-3.104-6.682-4.614-10.311-5.67
	c-1.968-0.573-6.178-1.115-7.721-0.997l-3.023,0.392l-0.839-1.155c-2.085-2.87-5.994-6.842-8.807-8.95
	c-0.319-0.239-0.826-0.658-1.126-0.93l-0.546-0.496l1.307-0.687c4.035-2.121,12.224-2.798,16.832-2.66
	c3.688,0.111,7.539,0.903,10.02,1.751c5.066,1.731,9.967,4.819,14.474,9.873c3.256,3.652,5.608,7.586,7.188,12.027
	c2.247,6.311,2.234,6.153,2.501,31.247l0.228,21.419l-7.094,0.029l-7.094,0.029L307.094,63.636L307.094,63.636z"/>
</svg>
